<mxfile host="Electron" agent="Mozilla/5.0 (X11; Linux x86_64) AppleWebKit/537.36 (KHTML, like Gecko) draw.io/26.0.4 Chrome/128.0.6613.186 Electron/32.2.5 Safari/537.36" version="26.0.4">
  <diagram name="Page-1" id="7XRxN9fcsI279J7zXUyY">
    <mxGraphModel dx="1226" dy="874" grid="1" gridSize="10" guides="1" tooltips="1" connect="1" arrows="1" fold="1" page="1" pageScale="1" pageWidth="850" pageHeight="1100" math="0" shadow="0">
      <root>
        <mxCell id="0" />
        <mxCell id="1" parent="0" />
        <mxCell id="r_eN24S2WwtYWTovbWh4-20" style="edgeStyle=orthogonalEdgeStyle;rounded=0;orthogonalLoop=1;jettySize=auto;html=1;endArrow=none;endFill=0;fontFamily=monospace;entryX=0.5;entryY=0.5;entryDx=0;entryDy=0;entryPerimeter=0;" parent="1" target="r_eN24S2WwtYWTovbWh4-18" edge="1">
          <mxGeometry relative="1" as="geometry">
            <mxPoint x="580" y="720" as="sourcePoint" />
            <mxPoint x="580" y="670" as="targetPoint" />
            <Array as="points">
              <mxPoint x="580" y="700" />
              <mxPoint x="580" y="700" />
            </Array>
          </mxGeometry>
        </mxCell>
        <mxCell id="zcpJajU4cuTAlBlpCWxD-3" value="stream&lt;br&gt;processing&lt;br&gt;component" style="rounded=0;whiteSpace=wrap;html=1;verticalAlign=top;" parent="1" vertex="1">
          <mxGeometry x="320" y="80" width="200" height="120" as="geometry" />
        </mxCell>
        <mxCell id="jEo-Pihkz2to_GVsBBrH-1" value="receiver" style="rounded=0;whiteSpace=wrap;html=1;align=center;verticalAlign=top;" parent="1" vertex="1">
          <mxGeometry x="560.69" y="380" width="119.31" height="120" as="geometry" />
        </mxCell>
        <mxCell id="jEo-Pihkz2to_GVsBBrH-3" value="transmitter" style="rounded=0;whiteSpace=wrap;html=1;align=center;verticalAlign=top;" parent="1" vertex="1">
          <mxGeometry x="160" y="380" width="120" height="120" as="geometry" />
        </mxCell>
        <mxCell id="jEo-Pihkz2to_GVsBBrH-12" value="TX interface&lt;div&gt;&lt;font face=&quot;monospace&quot;&gt;tx_*&lt;/font&gt;&lt;/div&gt;" style="edgeLabel;html=1;align=center;verticalAlign=middle;resizable=0;points=[];rotation=-90;" parent="1" vertex="1" connectable="0">
          <mxGeometry x="259.99982925538256" y="440.00132090293704" as="geometry" />
        </mxCell>
        <mxCell id="jEo-Pihkz2to_GVsBBrH-14" style="edgeStyle=orthogonalEdgeStyle;rounded=0;orthogonalLoop=1;jettySize=auto;html=1;entryX=0;entryY=0.25;entryDx=0;entryDy=0;exitX=1;exitY=0.25;exitDx=0;exitDy=0;endArrow=open;endFill=0;" parent="1" source="jEo-Pihkz2to_GVsBBrH-3" target="jEo-Pihkz2to_GVsBBrH-1" edge="1">
          <mxGeometry relative="1" as="geometry">
            <mxPoint x="330" y="400" as="sourcePoint" />
            <mxPoint x="430" y="400" as="targetPoint" />
          </mxGeometry>
        </mxCell>
        <mxCell id="_0EkkDKkcunaPASPQv3O-3" value="vld" style="edgeLabel;html=1;align=center;verticalAlign=middle;resizable=0;points=[];fontSize=12;fontFamily=monospace;" parent="jEo-Pihkz2to_GVsBBrH-14" vertex="1" connectable="0">
          <mxGeometry x="0.665" relative="1" as="geometry">
            <mxPoint x="-174" y="-10" as="offset" />
          </mxGeometry>
        </mxCell>
        <mxCell id="jEo-Pihkz2to_GVsBBrH-18" style="edgeStyle=orthogonalEdgeStyle;rounded=0;orthogonalLoop=1;jettySize=auto;html=1;entryX=0;entryY=0.5;entryDx=0;entryDy=0;exitX=1;exitY=0.5;exitDx=0;exitDy=0;strokeWidth=3;fontSize=12;endArrow=open;endFill=0;" parent="1" source="jEo-Pihkz2to_GVsBBrH-3" target="jEo-Pihkz2to_GVsBBrH-1" edge="1">
          <mxGeometry relative="1" as="geometry">
            <mxPoint x="320" y="410" as="sourcePoint" />
            <mxPoint x="440" y="410" as="targetPoint" />
          </mxGeometry>
        </mxCell>
        <mxCell id="_0EkkDKkcunaPASPQv3O-4" value="dat" style="edgeLabel;html=1;align=center;verticalAlign=middle;resizable=0;points=[];fontSize=12;fontFamily=monospace;" parent="jEo-Pihkz2to_GVsBBrH-18" vertex="1" connectable="0">
          <mxGeometry x="0.465" y="-1" relative="1" as="geometry">
            <mxPoint x="-146" y="-11" as="offset" />
          </mxGeometry>
        </mxCell>
        <mxCell id="jEo-Pihkz2to_GVsBBrH-20" style="edgeStyle=orthogonalEdgeStyle;rounded=0;orthogonalLoop=1;jettySize=auto;html=1;entryX=1;entryY=0.75;entryDx=0;entryDy=0;exitX=0;exitY=0.75;exitDx=0;exitDy=0;fontSize=12;endArrow=open;endFill=0;" parent="1" source="jEo-Pihkz2to_GVsBBrH-1" target="jEo-Pihkz2to_GVsBBrH-3" edge="1">
          <mxGeometry relative="1" as="geometry">
            <mxPoint x="420" y="450" as="sourcePoint" />
            <mxPoint x="330" y="440" as="targetPoint" />
          </mxGeometry>
        </mxCell>
        <mxCell id="_0EkkDKkcunaPASPQv3O-6" value="rdy" style="edgeLabel;html=1;align=center;verticalAlign=middle;resizable=0;points=[];fontSize=12;fontFamily=monospace;" parent="jEo-Pihkz2to_GVsBBrH-20" vertex="1" connectable="0">
          <mxGeometry x="-0.495" relative="1" as="geometry">
            <mxPoint x="-150" y="-10" as="offset" />
          </mxGeometry>
        </mxCell>
        <mxCell id="jEo-Pihkz2to_GVsBBrH-25" value="" style="curved=1;endArrow=classic;html=1;rounded=0;" parent="1" edge="1">
          <mxGeometry width="50" height="50" relative="1" as="geometry">
            <mxPoint x="310" y="360" as="sourcePoint" />
            <mxPoint x="290" y="400" as="targetPoint" />
            <Array as="points">
              <mxPoint x="310" y="380" />
            </Array>
          </mxGeometry>
        </mxCell>
        <mxCell id="jEo-Pihkz2to_GVsBBrH-26" value="" style="curved=1;endArrow=classic;html=1;rounded=0;" parent="1" edge="1">
          <mxGeometry width="50" height="50" relative="1" as="geometry">
            <mxPoint x="530" y="360" as="sourcePoint" />
            <mxPoint x="550.69" y="400" as="targetPoint" />
            <Array as="points">
              <mxPoint x="530" y="380" />
            </Array>
          </mxGeometry>
        </mxCell>
        <mxCell id="jEo-Pihkz2to_GVsBBrH-27" value="" style="curved=1;endArrow=classic;html=1;rounded=0;" parent="1" edge="1">
          <mxGeometry width="50" height="50" relative="1" as="geometry">
            <mxPoint x="310" y="520" as="sourcePoint" />
            <mxPoint x="290" y="480" as="targetPoint" />
            <Array as="points">
              <mxPoint x="310" y="500" />
            </Array>
          </mxGeometry>
        </mxCell>
        <mxCell id="jEo-Pihkz2to_GVsBBrH-28" value="" style="curved=1;endArrow=classic;html=1;rounded=0;" parent="1" edge="1">
          <mxGeometry width="50" height="50" relative="1" as="geometry">
            <mxPoint x="530" y="520" as="sourcePoint" />
            <mxPoint x="550" y="480" as="targetPoint" />
            <Array as="points">
              <mxPoint x="530" y="500" />
            </Array>
          </mxGeometry>
        </mxCell>
        <mxCell id="jEo-Pihkz2to_GVsBBrH-29" value="&lt;font style=&quot;font-size: 12px;&quot;&gt;source&lt;/font&gt;" style="edgeLabel;html=1;align=center;verticalAlign=middle;resizable=0;points=[];" parent="1" vertex="1" connectable="0">
          <mxGeometry x="309.99507042253515" y="350" as="geometry" />
        </mxCell>
        <mxCell id="jEo-Pihkz2to_GVsBBrH-30" value="&lt;font style=&quot;font-size: 12px;&quot;&gt;source&lt;/font&gt;" style="edgeLabel;html=1;align=center;verticalAlign=middle;resizable=0;points=[];" parent="1" vertex="1" connectable="0">
          <mxGeometry x="529.9950704225352" y="530" as="geometry" />
        </mxCell>
        <mxCell id="jEo-Pihkz2to_GVsBBrH-31" value="&lt;font style=&quot;font-size: 12px;&quot;&gt;destination&lt;/font&gt;" style="edgeLabel;html=1;align=center;verticalAlign=middle;resizable=0;points=[];" parent="1" vertex="1" connectable="0">
          <mxGeometry x="529.9950704225352" y="350" as="geometry" />
        </mxCell>
        <mxCell id="jEo-Pihkz2to_GVsBBrH-33" value="&lt;font style=&quot;font-size: 12px;&quot;&gt;destination&lt;/font&gt;" style="edgeLabel;html=1;align=center;verticalAlign=middle;resizable=0;points=[];" parent="1" vertex="1" connectable="0">
          <mxGeometry x="309.99507042253515" y="530" as="geometry" />
        </mxCell>
        <mxCell id="kt8XWTcMbV0CpP425pMj-2" value="RX interface&lt;div&gt;&lt;font face=&quot;monospace&quot;&gt;rx_*&lt;/font&gt;&lt;/div&gt;" style="edgeLabel;html=1;align=center;verticalAlign=middle;resizable=0;points=[];rotation=-90;" parent="1" vertex="1" connectable="0">
          <mxGeometry x="579.9998292553826" y="440.00132090293704" as="geometry" />
        </mxCell>
        <mxCell id="kt8XWTcMbV0CpP425pMj-3" value="monitor" style="rounded=0;whiteSpace=wrap;html=1;align=center;verticalAlign=top;" parent="1" vertex="1">
          <mxGeometry x="360" y="280" width="119.31" height="80" as="geometry" />
        </mxCell>
        <mxCell id="kt8XWTcMbV0CpP425pMj-4" value="mon. interface" style="edgeLabel;html=1;align=center;verticalAlign=middle;resizable=0;points=[];rotation=0;" parent="1" vertex="1" connectable="0">
          <mxGeometry x="419.65982925538253" y="350.00132090293704" as="geometry" />
        </mxCell>
        <mxCell id="kt8XWTcMbV0CpP425pMj-11" value="" style="endArrow=open;startArrow=oval;html=1;rounded=0;entryX=0.25;entryY=1;entryDx=0;entryDy=0;startFill=1;endFill=0;" parent="1" target="kt8XWTcMbV0CpP425pMj-3" edge="1">
          <mxGeometry width="50" height="50" relative="1" as="geometry">
            <mxPoint x="390" y="410" as="sourcePoint" />
            <mxPoint x="440" y="400" as="targetPoint" />
          </mxGeometry>
        </mxCell>
        <mxCell id="kt8XWTcMbV0CpP425pMj-12" value="" style="endArrow=open;startArrow=oval;html=1;rounded=0;entryX=0.75;entryY=1;entryDx=0;entryDy=0;startFill=1;endFill=0;" parent="1" target="kt8XWTcMbV0CpP425pMj-3" edge="1">
          <mxGeometry width="50" height="50" relative="1" as="geometry">
            <mxPoint x="450" y="470" as="sourcePoint" />
            <mxPoint x="450" y="370" as="targetPoint" />
          </mxGeometry>
        </mxCell>
        <mxCell id="kt8XWTcMbV0CpP425pMj-13" value="" style="endArrow=open;startArrow=oval;html=1;rounded=0;entryX=0.5;entryY=1;entryDx=0;entryDy=0;startFill=1;strokeWidth=3;endFill=0;" parent="1" target="kt8XWTcMbV0CpP425pMj-3" edge="1">
          <mxGeometry width="50" height="50" relative="1" as="geometry">
            <mxPoint x="420" y="440" as="sourcePoint" />
            <mxPoint x="410" y="380" as="targetPoint" />
          </mxGeometry>
        </mxCell>
        <mxCell id="kt8XWTcMbV0CpP425pMj-14" value="" style="endArrow=open;html=1;rounded=0;strokeWidth=3;endFill=0;" parent="1" edge="1">
          <mxGeometry width="50" height="50" relative="1" as="geometry">
            <mxPoint x="520" y="140" as="sourcePoint" />
            <mxPoint x="600" y="140" as="targetPoint" />
          </mxGeometry>
        </mxCell>
        <mxCell id="kt8XWTcMbV0CpP425pMj-17" value="stream" style="edgeLabel;html=1;align=center;verticalAlign=middle;resizable=0;points=[];" parent="kt8XWTcMbV0CpP425pMj-14" vertex="1" connectable="0">
          <mxGeometry x="-0.1536" y="-1" relative="1" as="geometry">
            <mxPoint x="6" y="-11" as="offset" />
          </mxGeometry>
        </mxCell>
        <mxCell id="kt8XWTcMbV0CpP425pMj-15" value="" style="endArrow=open;html=1;rounded=0;exitX=1;exitY=0.5;exitDx=0;exitDy=0;strokeWidth=3;endFill=0;" parent="1" edge="1">
          <mxGeometry width="50" height="50" relative="1" as="geometry">
            <mxPoint x="240" y="139.71" as="sourcePoint" />
            <mxPoint x="320" y="139.71" as="targetPoint" />
          </mxGeometry>
        </mxCell>
        <mxCell id="kt8XWTcMbV0CpP425pMj-16" value="stream" style="edgeLabel;html=1;align=center;verticalAlign=middle;resizable=0;points=[];" parent="kt8XWTcMbV0CpP425pMj-15" vertex="1" connectable="0">
          <mxGeometry x="-0.4536" y="-2" relative="1" as="geometry">
            <mxPoint x="18" y="-12" as="offset" />
          </mxGeometry>
        </mxCell>
        <mxCell id="kt8XWTcMbV0CpP425pMj-18" value="RX interface&lt;div&gt;&lt;font face=&quot;monospace&quot;&gt;rx_*&lt;/font&gt;&lt;/div&gt;" style="edgeLabel;html=1;align=center;verticalAlign=middle;resizable=0;points=[];rotation=-90;" parent="1" vertex="1" connectable="0">
          <mxGeometry x="339.99982925538256" y="140.00132090293704" as="geometry" />
        </mxCell>
        <mxCell id="kt8XWTcMbV0CpP425pMj-19" value="TX interface&lt;div&gt;&lt;font face=&quot;monospace&quot;&gt;tx_*&lt;/font&gt;&lt;/div&gt;" style="edgeLabel;html=1;align=center;verticalAlign=middle;resizable=0;points=[];rotation=-90;" parent="1" vertex="1" connectable="0">
          <mxGeometry x="499.99982925538256" y="140.00132090293704" as="geometry" />
        </mxCell>
        <mxCell id="kt8XWTcMbV0CpP425pMj-20" value="" style="group;fontFamily=monospace;" parent="1" vertex="1" connectable="0">
          <mxGeometry x="160" y="640" width="40" height="60" as="geometry" />
        </mxCell>
        <mxCell id="kt8XWTcMbV0CpP425pMj-21" value="" style="rounded=0;whiteSpace=wrap;html=1;fontFamily=monospace;" parent="kt8XWTcMbV0CpP425pMj-20" vertex="1">
          <mxGeometry width="40" height="60" as="geometry" />
        </mxCell>
        <mxCell id="kt8XWTcMbV0CpP425pMj-22" value="D" style="text;html=1;strokeColor=none;fillColor=none;align=left;verticalAlign=middle;whiteSpace=wrap;rounded=0;fontFamily=monospace;" parent="kt8XWTcMbV0CpP425pMj-20" vertex="1">
          <mxGeometry width="20" height="20" as="geometry" />
        </mxCell>
        <mxCell id="kt8XWTcMbV0CpP425pMj-23" value="Q" style="text;html=1;strokeColor=none;fillColor=none;align=right;verticalAlign=middle;whiteSpace=wrap;rounded=0;fontFamily=monospace;" parent="kt8XWTcMbV0CpP425pMj-20" vertex="1">
          <mxGeometry x="20" width="20" height="20" as="geometry" />
        </mxCell>
        <mxCell id="kt8XWTcMbV0CpP425pMj-24" value="" style="endArrow=none;html=1;rounded=0;fontFamily=monospace;" parent="kt8XWTcMbV0CpP425pMj-20" edge="1">
          <mxGeometry width="50" height="50" relative="1" as="geometry">
            <mxPoint y="60" as="sourcePoint" />
            <mxPoint x="20" y="60" as="targetPoint" />
            <Array as="points">
              <mxPoint x="10" y="50" />
            </Array>
          </mxGeometry>
        </mxCell>
        <mxCell id="kt8XWTcMbV0CpP425pMj-25" value="EN" style="text;html=1;strokeColor=none;fillColor=none;align=left;verticalAlign=middle;whiteSpace=wrap;rounded=0;fontFamily=monospace;" parent="kt8XWTcMbV0CpP425pMj-20" vertex="1">
          <mxGeometry y="20" width="20" height="20" as="geometry" />
        </mxCell>
        <mxCell id="kt8XWTcMbV0CpP425pMj-37" value="&lt;p&gt;R&lt;/p&gt;" style="text;html=1;strokeColor=none;fillColor=none;align=center;verticalAlign=middle;whiteSpace=wrap;rounded=0;fontFamily=monospace;" parent="kt8XWTcMbV0CpP425pMj-20" vertex="1">
          <mxGeometry x="20" y="40" width="20" height="20" as="geometry" />
        </mxCell>
        <mxCell id="kt8XWTcMbV0CpP425pMj-38" style="edgeStyle=orthogonalEdgeStyle;rounded=0;orthogonalLoop=1;jettySize=auto;html=1;endArrow=none;endFill=0;fontFamily=monospace;" parent="kt8XWTcMbV0CpP425pMj-20" edge="1">
          <mxGeometry relative="1" as="geometry">
            <mxPoint x="29.94999999999999" y="70" as="sourcePoint" />
            <mxPoint x="29.94999999999999" y="60" as="targetPoint" />
          </mxGeometry>
        </mxCell>
        <mxCell id="kt8XWTcMbV0CpP425pMj-26" style="edgeStyle=orthogonalEdgeStyle;rounded=0;orthogonalLoop=1;jettySize=auto;html=1;endArrow=none;endFill=0;exitX=1;exitY=0.5;exitDx=0;exitDy=0;fontFamily=monospace;" parent="1" source="kt8XWTcMbV0CpP425pMj-23" edge="1">
          <mxGeometry relative="1" as="geometry">
            <mxPoint x="200.69" y="650" as="sourcePoint" />
            <mxPoint x="210" y="650" as="targetPoint" />
          </mxGeometry>
        </mxCell>
        <mxCell id="kt8XWTcMbV0CpP425pMj-27" style="edgeStyle=orthogonalEdgeStyle;rounded=0;orthogonalLoop=1;jettySize=auto;html=1;endArrow=none;endFill=0;exitX=1;exitY=0.5;exitDx=0;exitDy=0;fontFamily=monospace;" parent="1" edge="1">
          <mxGeometry relative="1" as="geometry">
            <mxPoint x="150" y="650" as="sourcePoint" />
            <mxPoint x="160" y="650" as="targetPoint" />
          </mxGeometry>
        </mxCell>
        <mxCell id="kt8XWTcMbV0CpP425pMj-28" style="edgeStyle=orthogonalEdgeStyle;rounded=0;orthogonalLoop=1;jettySize=auto;html=1;endArrow=none;endFill=0;exitX=1;exitY=0.5;exitDx=0;exitDy=0;fontFamily=monospace;" parent="1" edge="1">
          <mxGeometry relative="1" as="geometry">
            <mxPoint x="150" y="669.96" as="sourcePoint" />
            <mxPoint x="160" y="669.96" as="targetPoint" />
          </mxGeometry>
        </mxCell>
        <mxCell id="kt8XWTcMbV0CpP425pMj-29" style="edgeStyle=orthogonalEdgeStyle;rounded=0;orthogonalLoop=1;jettySize=auto;html=1;endArrow=none;endFill=0;fontFamily=monospace;" parent="1" edge="1">
          <mxGeometry relative="1" as="geometry">
            <mxPoint x="170" y="710" as="sourcePoint" />
            <mxPoint x="170" y="700" as="targetPoint" />
          </mxGeometry>
        </mxCell>
        <mxCell id="r_eN24S2WwtYWTovbWh4-1" value="" style="group;fontFamily=monospace;" parent="1" vertex="1" connectable="0">
          <mxGeometry x="600" y="640" width="40" height="60" as="geometry" />
        </mxCell>
        <mxCell id="r_eN24S2WwtYWTovbWh4-2" value="" style="rounded=0;whiteSpace=wrap;html=1;fontFamily=monospace;" parent="r_eN24S2WwtYWTovbWh4-1" vertex="1">
          <mxGeometry width="40" height="60" as="geometry" />
        </mxCell>
        <mxCell id="r_eN24S2WwtYWTovbWh4-3" value="D" style="text;html=1;strokeColor=none;fillColor=none;align=left;verticalAlign=middle;whiteSpace=wrap;rounded=0;fontFamily=monospace;" parent="r_eN24S2WwtYWTovbWh4-1" vertex="1">
          <mxGeometry width="20" height="20" as="geometry" />
        </mxCell>
        <mxCell id="r_eN24S2WwtYWTovbWh4-4" value="Q" style="text;html=1;strokeColor=none;fillColor=none;align=right;verticalAlign=middle;whiteSpace=wrap;rounded=0;fontFamily=monospace;" parent="r_eN24S2WwtYWTovbWh4-1" vertex="1">
          <mxGeometry x="20" width="20" height="20" as="geometry" />
        </mxCell>
        <mxCell id="r_eN24S2WwtYWTovbWh4-5" value="" style="endArrow=none;html=1;rounded=0;fontFamily=monospace;" parent="r_eN24S2WwtYWTovbWh4-1" edge="1">
          <mxGeometry width="50" height="50" relative="1" as="geometry">
            <mxPoint y="60" as="sourcePoint" />
            <mxPoint x="20" y="60" as="targetPoint" />
            <Array as="points">
              <mxPoint x="10" y="50" />
            </Array>
          </mxGeometry>
        </mxCell>
        <mxCell id="r_eN24S2WwtYWTovbWh4-7" value="&lt;p&gt;S&lt;font face=&quot;Helvetica&quot;&gt;/&lt;/font&gt;R&lt;/p&gt;" style="text;html=1;strokeColor=none;fillColor=none;align=center;verticalAlign=middle;whiteSpace=wrap;rounded=0;fontFamily=monospace;" parent="r_eN24S2WwtYWTovbWh4-1" vertex="1">
          <mxGeometry x="20" y="40" width="20" height="20" as="geometry" />
        </mxCell>
        <mxCell id="r_eN24S2WwtYWTovbWh4-8" style="edgeStyle=orthogonalEdgeStyle;rounded=0;orthogonalLoop=1;jettySize=auto;html=1;endArrow=none;endFill=0;fontFamily=monospace;" parent="r_eN24S2WwtYWTovbWh4-1" edge="1">
          <mxGeometry relative="1" as="geometry">
            <mxPoint x="30" y="80" as="sourcePoint" />
            <mxPoint x="29.94999999999999" y="60" as="targetPoint" />
          </mxGeometry>
        </mxCell>
        <mxCell id="r_eN24S2WwtYWTovbWh4-9" style="edgeStyle=orthogonalEdgeStyle;rounded=0;orthogonalLoop=1;jettySize=auto;html=1;endArrow=none;endFill=0;exitX=1;exitY=0.5;exitDx=0;exitDy=0;fontFamily=monospace;" parent="1" source="r_eN24S2WwtYWTovbWh4-4" edge="1">
          <mxGeometry relative="1" as="geometry">
            <mxPoint x="640.69" y="650" as="sourcePoint" />
            <mxPoint x="660" y="650" as="targetPoint" />
          </mxGeometry>
        </mxCell>
        <mxCell id="r_eN24S2WwtYWTovbWh4-10" style="edgeStyle=orthogonalEdgeStyle;rounded=0;orthogonalLoop=1;jettySize=auto;html=1;endArrow=none;endFill=0;fontFamily=monospace;" parent="1" edge="1">
          <mxGeometry relative="1" as="geometry">
            <mxPoint x="590" y="650" as="sourcePoint" />
            <mxPoint x="600" y="650" as="targetPoint" />
          </mxGeometry>
        </mxCell>
        <mxCell id="r_eN24S2WwtYWTovbWh4-12" style="edgeStyle=orthogonalEdgeStyle;rounded=0;orthogonalLoop=1;jettySize=auto;html=1;endArrow=none;endFill=0;fontFamily=monospace;" parent="1" edge="1">
          <mxGeometry relative="1" as="geometry">
            <mxPoint x="610" y="720" as="sourcePoint" />
            <mxPoint x="610" y="700" as="targetPoint" />
          </mxGeometry>
        </mxCell>
        <mxCell id="r_eN24S2WwtYWTovbWh4-15" style="edgeStyle=orthogonalEdgeStyle;rounded=0;orthogonalLoop=1;jettySize=auto;html=1;endArrow=none;endFill=0;entryX=0.75;entryY=1;entryDx=0;entryDy=0;fontFamily=monospace;" parent="1" target="r_eN24S2WwtYWTovbWh4-16" edge="1">
          <mxGeometry relative="1" as="geometry">
            <mxPoint x="579.3599999999999" y="658.67" as="targetPoint" />
            <mxPoint x="550" y="660" as="sourcePoint" />
            <Array as="points">
              <mxPoint x="560" y="660" />
              <mxPoint x="570" y="660" />
            </Array>
          </mxGeometry>
        </mxCell>
        <mxCell id="r_eN24S2WwtYWTovbWh4-16" value="" style="shape=trapezoid;perimeter=trapezoidPerimeter;whiteSpace=wrap;html=1;fixedSize=1;size=10;rotation=90;fontFamily=monospace;" parent="1" vertex="1">
          <mxGeometry x="560" y="640" width="40" height="20" as="geometry" />
        </mxCell>
        <mxCell id="r_eN24S2WwtYWTovbWh4-17" value="0" style="text;html=1;strokeColor=none;fillColor=none;align=left;verticalAlign=middle;whiteSpace=wrap;rounded=0;fontFamily=monospace;" parent="1" vertex="1">
          <mxGeometry x="570" y="630" width="20" height="20" as="geometry" />
        </mxCell>
        <mxCell id="r_eN24S2WwtYWTovbWh4-18" value="1" style="text;html=1;strokeColor=none;fillColor=none;align=left;verticalAlign=middle;whiteSpace=wrap;rounded=0;fontFamily=monospace;" parent="1" vertex="1">
          <mxGeometry x="570" y="650" width="20" height="20" as="geometry" />
        </mxCell>
        <mxCell id="r_eN24S2WwtYWTovbWh4-19" style="edgeStyle=orthogonalEdgeStyle;rounded=0;orthogonalLoop=1;jettySize=auto;html=1;endArrow=none;endFill=0;fontFamily=monospace;startArrow=oval;startFill=1;" parent="1" edge="1">
          <mxGeometry relative="1" as="geometry">
            <mxPoint x="650" y="650" as="sourcePoint" />
            <mxPoint x="570" y="640" as="targetPoint" />
            <Array as="points">
              <mxPoint x="650" y="620" />
              <mxPoint x="560" y="620" />
              <mxPoint x="560" y="640" />
            </Array>
          </mxGeometry>
        </mxCell>
        <mxCell id="r_eN24S2WwtYWTovbWh4-21" value="EN" style="text;html=1;strokeColor=none;fillColor=none;align=left;verticalAlign=middle;whiteSpace=wrap;rounded=0;fontFamily=monospace;" parent="1" vertex="1">
          <mxGeometry x="560" y="690" width="20" height="20" as="geometry" />
        </mxCell>
        <mxCell id="r_eN24S2WwtYWTovbWh4-22" value="D" style="text;html=1;strokeColor=none;fillColor=none;align=left;verticalAlign=middle;whiteSpace=wrap;rounded=0;fontFamily=monospace;" parent="1" vertex="1">
          <mxGeometry x="550" y="640" width="20" height="20" as="geometry" />
        </mxCell>
        <mxCell id="Us5M_LK5tYyA5RaRxqfi-1" value="" style="group;fontFamily=monospace;" vertex="1" connectable="0" parent="1">
          <mxGeometry x="240" y="640" width="40" height="60" as="geometry" />
        </mxCell>
        <mxCell id="Us5M_LK5tYyA5RaRxqfi-2" value="" style="rounded=0;whiteSpace=wrap;html=1;fontFamily=monospace;" vertex="1" parent="Us5M_LK5tYyA5RaRxqfi-1">
          <mxGeometry width="40" height="60" as="geometry" />
        </mxCell>
        <mxCell id="Us5M_LK5tYyA5RaRxqfi-3" value="D" style="text;html=1;strokeColor=none;fillColor=none;align=left;verticalAlign=middle;whiteSpace=wrap;rounded=0;fontFamily=monospace;" vertex="1" parent="Us5M_LK5tYyA5RaRxqfi-1">
          <mxGeometry width="20" height="20" as="geometry" />
        </mxCell>
        <mxCell id="Us5M_LK5tYyA5RaRxqfi-4" value="Q" style="text;html=1;strokeColor=none;fillColor=none;align=right;verticalAlign=middle;whiteSpace=wrap;rounded=0;fontFamily=monospace;" vertex="1" parent="Us5M_LK5tYyA5RaRxqfi-1">
          <mxGeometry x="20" width="20" height="20" as="geometry" />
        </mxCell>
        <mxCell id="Us5M_LK5tYyA5RaRxqfi-5" value="" style="endArrow=none;html=1;rounded=0;fontFamily=monospace;" edge="1" parent="Us5M_LK5tYyA5RaRxqfi-1">
          <mxGeometry width="50" height="50" relative="1" as="geometry">
            <mxPoint y="60" as="sourcePoint" />
            <mxPoint x="20" y="60" as="targetPoint" />
            <Array as="points">
              <mxPoint x="10" y="50" />
            </Array>
          </mxGeometry>
        </mxCell>
        <mxCell id="Us5M_LK5tYyA5RaRxqfi-6" value="EN" style="text;html=1;strokeColor=none;fillColor=none;align=left;verticalAlign=middle;whiteSpace=wrap;rounded=0;fontFamily=monospace;" vertex="1" parent="Us5M_LK5tYyA5RaRxqfi-1">
          <mxGeometry y="20" width="20" height="20" as="geometry" />
        </mxCell>
        <mxCell id="Us5M_LK5tYyA5RaRxqfi-7" value="&lt;p&gt;S&lt;/p&gt;" style="text;html=1;strokeColor=none;fillColor=none;align=center;verticalAlign=middle;whiteSpace=wrap;rounded=0;fontFamily=monospace;" vertex="1" parent="Us5M_LK5tYyA5RaRxqfi-1">
          <mxGeometry x="20" y="40" width="20" height="20" as="geometry" />
        </mxCell>
        <mxCell id="Us5M_LK5tYyA5RaRxqfi-8" style="edgeStyle=orthogonalEdgeStyle;rounded=0;orthogonalLoop=1;jettySize=auto;html=1;endArrow=none;endFill=0;fontFamily=monospace;" edge="1" parent="Us5M_LK5tYyA5RaRxqfi-1">
          <mxGeometry relative="1" as="geometry">
            <mxPoint x="29.94999999999999" y="70" as="sourcePoint" />
            <mxPoint x="29.94999999999999" y="60" as="targetPoint" />
          </mxGeometry>
        </mxCell>
        <mxCell id="Us5M_LK5tYyA5RaRxqfi-9" style="edgeStyle=orthogonalEdgeStyle;rounded=0;orthogonalLoop=1;jettySize=auto;html=1;endArrow=none;endFill=0;exitX=1;exitY=0.5;exitDx=0;exitDy=0;fontFamily=monospace;" edge="1" parent="1" source="Us5M_LK5tYyA5RaRxqfi-4">
          <mxGeometry relative="1" as="geometry">
            <mxPoint x="280.69" y="650" as="sourcePoint" />
            <mxPoint x="290" y="650" as="targetPoint" />
          </mxGeometry>
        </mxCell>
        <mxCell id="Us5M_LK5tYyA5RaRxqfi-10" style="edgeStyle=orthogonalEdgeStyle;rounded=0;orthogonalLoop=1;jettySize=auto;html=1;endArrow=none;endFill=0;exitX=1;exitY=0.5;exitDx=0;exitDy=0;fontFamily=monospace;" edge="1" parent="1">
          <mxGeometry relative="1" as="geometry">
            <mxPoint x="230" y="650" as="sourcePoint" />
            <mxPoint x="240" y="650" as="targetPoint" />
          </mxGeometry>
        </mxCell>
        <mxCell id="Us5M_LK5tYyA5RaRxqfi-11" style="edgeStyle=orthogonalEdgeStyle;rounded=0;orthogonalLoop=1;jettySize=auto;html=1;endArrow=none;endFill=0;exitX=1;exitY=0.5;exitDx=0;exitDy=0;fontFamily=monospace;" edge="1" parent="1">
          <mxGeometry relative="1" as="geometry">
            <mxPoint x="230" y="669.96" as="sourcePoint" />
            <mxPoint x="240" y="669.96" as="targetPoint" />
          </mxGeometry>
        </mxCell>
        <mxCell id="Us5M_LK5tYyA5RaRxqfi-12" style="edgeStyle=orthogonalEdgeStyle;rounded=0;orthogonalLoop=1;jettySize=auto;html=1;endArrow=none;endFill=0;fontFamily=monospace;" edge="1" parent="1">
          <mxGeometry relative="1" as="geometry">
            <mxPoint x="250" y="710" as="sourcePoint" />
            <mxPoint x="250" y="700" as="targetPoint" />
          </mxGeometry>
        </mxCell>
        <mxCell id="Us5M_LK5tYyA5RaRxqfi-13" value="" style="group;fontFamily=monospace;" vertex="1" connectable="0" parent="1">
          <mxGeometry x="320" y="640" width="40" height="60" as="geometry" />
        </mxCell>
        <mxCell id="Us5M_LK5tYyA5RaRxqfi-14" value="" style="rounded=0;whiteSpace=wrap;html=1;fontFamily=monospace;" vertex="1" parent="Us5M_LK5tYyA5RaRxqfi-13">
          <mxGeometry width="40" height="60" as="geometry" />
        </mxCell>
        <mxCell id="Us5M_LK5tYyA5RaRxqfi-15" value="D" style="text;html=1;strokeColor=none;fillColor=none;align=left;verticalAlign=middle;whiteSpace=wrap;rounded=0;fontFamily=monospace;" vertex="1" parent="Us5M_LK5tYyA5RaRxqfi-13">
          <mxGeometry width="20" height="20" as="geometry" />
        </mxCell>
        <mxCell id="Us5M_LK5tYyA5RaRxqfi-16" value="Q" style="text;html=1;strokeColor=none;fillColor=none;align=right;verticalAlign=middle;whiteSpace=wrap;rounded=0;fontFamily=monospace;" vertex="1" parent="Us5M_LK5tYyA5RaRxqfi-13">
          <mxGeometry x="20" width="20" height="20" as="geometry" />
        </mxCell>
        <mxCell id="Us5M_LK5tYyA5RaRxqfi-17" value="" style="endArrow=none;html=1;rounded=0;fontFamily=monospace;" edge="1" parent="Us5M_LK5tYyA5RaRxqfi-13">
          <mxGeometry width="50" height="50" relative="1" as="geometry">
            <mxPoint y="60" as="sourcePoint" />
            <mxPoint x="20" y="60" as="targetPoint" />
            <Array as="points">
              <mxPoint x="10" y="50" />
            </Array>
          </mxGeometry>
        </mxCell>
        <mxCell id="Us5M_LK5tYyA5RaRxqfi-18" value="EN" style="text;html=1;strokeColor=none;fillColor=none;align=left;verticalAlign=middle;whiteSpace=wrap;rounded=0;fontFamily=monospace;" vertex="1" parent="Us5M_LK5tYyA5RaRxqfi-13">
          <mxGeometry y="20" width="20" height="20" as="geometry" />
        </mxCell>
        <mxCell id="Us5M_LK5tYyA5RaRxqfi-21" style="edgeStyle=orthogonalEdgeStyle;rounded=0;orthogonalLoop=1;jettySize=auto;html=1;endArrow=none;endFill=0;exitX=1;exitY=0.5;exitDx=0;exitDy=0;fontFamily=monospace;" edge="1" parent="1" source="Us5M_LK5tYyA5RaRxqfi-16">
          <mxGeometry relative="1" as="geometry">
            <mxPoint x="360.69" y="650" as="sourcePoint" />
            <mxPoint x="370" y="650" as="targetPoint" />
          </mxGeometry>
        </mxCell>
        <mxCell id="Us5M_LK5tYyA5RaRxqfi-22" style="edgeStyle=orthogonalEdgeStyle;rounded=0;orthogonalLoop=1;jettySize=auto;html=1;endArrow=none;endFill=0;exitX=1;exitY=0.5;exitDx=0;exitDy=0;fontFamily=monospace;" edge="1" parent="1">
          <mxGeometry relative="1" as="geometry">
            <mxPoint x="310" y="650" as="sourcePoint" />
            <mxPoint x="320" y="650" as="targetPoint" />
          </mxGeometry>
        </mxCell>
        <mxCell id="Us5M_LK5tYyA5RaRxqfi-23" style="edgeStyle=orthogonalEdgeStyle;rounded=0;orthogonalLoop=1;jettySize=auto;html=1;endArrow=none;endFill=0;exitX=1;exitY=0.5;exitDx=0;exitDy=0;fontFamily=monospace;" edge="1" parent="1">
          <mxGeometry relative="1" as="geometry">
            <mxPoint x="310" y="669.96" as="sourcePoint" />
            <mxPoint x="320" y="669.96" as="targetPoint" />
          </mxGeometry>
        </mxCell>
        <mxCell id="Us5M_LK5tYyA5RaRxqfi-24" style="edgeStyle=orthogonalEdgeStyle;rounded=0;orthogonalLoop=1;jettySize=auto;html=1;endArrow=none;endFill=0;fontFamily=monospace;" edge="1" parent="1">
          <mxGeometry relative="1" as="geometry">
            <mxPoint x="330" y="710" as="sourcePoint" />
            <mxPoint x="330" y="700" as="targetPoint" />
          </mxGeometry>
        </mxCell>
      </root>
    </mxGraphModel>
  </diagram>
</mxfile>
